:FULLY-SPECIFIED
:FORCE-ALL-JOINTS-BE-3DOF
:DEGREES
2242
root -0.738098 13.835 -16.4042 907.065 -25.9101 170.535
lfemur 8.83606 1.05301 -14.2425
ltibia 39.5562 0 0
lfoot -25.2432 35.2359 0
ltoes -39.6745 0 0
rfemur -66.4626 -20.3362 8.15317
rtibia 68.4057 0 0
rfoot -2.3096 13.3479 0
rtoes 2.431 0 0
lowerback 11.2658 2.03013 -12.8111
upperback -2.1561 0.598607 -1.45525
thorax -8.88715 0.846072 5.53444
lowerneck 1.14323 -11.5684 -12.5939
upperneck 5.4492 -16.1856 10.019
head 3.28905 -8.16291 4.35577
lclavicle 3.44033e-14 4.60399e-15 0
lhumerus -66.1919 -18.7267 103.329
lradius 101.072 0 0
lwrist 57.6975 0 0
lhand -9.7892 425.238 0
lfingers 7.12502 0 0
lthumb 16.1847 -405.283 0
rclavicle 3.44033e-14 4.60399e-15 0
rhumerus 47.0864 -9.00978 -61.4619
rradius 20.1539 0 0
rwrist 33.1665 0 0
rhand -16.6554 -402.426 0
rfingers 7.12502 0 0
rthumb 9.22134 290.051 0
2243
root -0.741698 13.8283 -16.4291 907.197 -25.8472 170.495
lfemur 8.86683 1.01629 -14.3413
ltibia 39.2964 0 0
lfoot -25.1618 35.2427 0
ltoes -39.8802 0 0
rfemur -66.6728 -20.3728 8.20833
rtibia 68.6253 0 0
rfoot -2.42978 13.3498 0
rtoes 2.52611 0 0
lowerback 11.1626 2.02207 -12.845
upperback -2.18091 0.595033 -1.46881
thorax -8.85501 0.843856 5.54032
lowerneck 1.0943 -11.5627 -12.5506
upperneck 5.46381 -16.1738 10.011
head 3.29771 -8.15581 4.3451
lclavicle 3.39595e-14 5.35715e-15 0
lhumerus -65.8355 -18.8473 103.267
lradius 100.899 0 0
lwrist 57.5528 0 0
lhand -9.9714 424.847 0
lfingers 7.12502 0 0
lthumb 16.0091 -399.219 0
rclavicle 3.39595e-14 5.35715e-15 0
rhumerus 46.879 -8.96222 -61.4276
rradius 20.5876 0 0
rwrist 32.7104 0 0
rhand -16.3617 -402.36 0
rfingers 7.12502 0 0
rthumb 9.46625 290.377 0
2244
root -0.745298 13.8215 -16.454 907.359 -25.7856 170.442
lfemur 8.92325 0.971577 -14.442
ltibia 38.9902 0 0
lfoot -25.0721 35.2623 0
ltoes -40.1134 0 0
rfemur -66.9211 -20.429 8.2674
rtibia 68.8799 0 0
rfoot -2.57958 13.3616 0
rtoes 2.62941 0 0
lowerback 11.0459 2.01571 -12.8849
upperback -2.21062 0.593921 -1.48735
thorax -8.82112 0.842971 5.54372
lowerneck 1.04776 -11.5627 -12.5086
upperneck 5.46898 -16.1691 10.0074
head 3.30414 -8.15205 4.3357
lclavicle 3.35125e-14 6.18716e-15 0
lhumerus -65.5391 -18.9538 103.217
lradius 100.748 0 0
lwrist 57.4535 0 0
lhand -10.1512 424.447 0
lfingers 7.12502 0 0
lthumb 15.8359 -392.687 0
rclavicle 3.35125e-14 6.18716e-15 0
rhumerus 46.7097 -8.92783 -61.3778
rradius 20.9555 0 0
rwrist 32.3052 0 0
rhand -16.1231 -402.302 0
rfingers 7.12502 0 0
rthumb 9.66438 290.652 0
2245
root -0.748898 13.8147 -16.479 907.553 -25.7257 170.375
lfemur 9.00782 0.918237 -14.5444
ltibia 38.6341 0 0
lfoot -24.9738 35.2958 0
ltoes -40.3759 0 0
rfemur -67.2103 -20.5067 8.33051
rtibia 69.1721 0 0
rfoot -2.76146 13.3844 0
rtoes 2.74129 0 0
lowerback 10.9148 2.01124 -12.9314
upperback -2.2456 0.595543 -1.51131
thorax -8.78545 0.843566 5.54436
lowerneck 1.00411 -11.569 -12.4682
upperneck 5.46366 -16.1724 10.0089
head 3.30807 -8.15203 4.32776
lclavicle 3.30644e-14 7.09815e-15 0
lhumerus -65.3107 -19.0439 103.18
lradius 100.623 0 0
lwrist 57.4052 0 0
lhand -10.3274 424.039 0
lfingers 7.12502 0 0
lthumb 15.6661 -385.669 0
rclavicle 3.30644e-14 7.09815e-15 0
rhumerus 46.5835 -8.9082 -61.3111
rradius 21.2488 0 0
rwrist 31.9586 0 0
rhand -15.9466 -402.253 0
rfingers 7.12502 0 0
rthumb 9.80971 290.868 0
2246
root -0.752499 13.808 -16.5039 907.782 -25.6678 170.293
lfemur 9.12303 0.855625 -14.6481
ltibia 38.2246 0 0
lfoot -24.8663 35.3445 0
ltoes -40.6695 0 0
rfemur -67.5432 -20.6077 8.39779
rtibia 69.5044 0 0
rfoot -2.97787 13.4192 0
rtoes 2.8621 0 0
lowerback 10.7684 2.00889 -12.9849
upperback -2.28623 0.60017 -1.54113
thorax -8.748 0.845789 5.54196
lowerneck 0.963832 -11.5822 -12.4297
upperneck 5.44682 -16.1845 10.0158
head 3.30923 -8.15613 4.32145
lclavicle 3.2617e-14 8.0943e-15 0
lhumerus -65.1583 -19.1157 103.157
lradius 100.526 0 0
lwrist 57.4133 0 0
lhand -10.4989 423.622 0
lfingers 7.12502 0 0
lthumb 15.5008 -378.147 0
rclavicle 3.2617e-14 8.0943e-15 0
rhumerus 46.5052 -8.90493 -61.2262
rradius 21.4584 0 0
rwrist 31.6779 0 0
rhand -15.8395 -402.215 0
rfingers 7.12502 0 0
rthumb 9.89618 291.02 0
2247
root -0.756099 13.8012 -16.5288 908.046 -25.6125 170.196
lfemur 9.27137 0.783101 -14.7528
ltibia 37.7583 0 0
lfoot -24.7494 35.4097 0
ltoes -40.9961 0 0
rfemur -67.9227 -20.7339 8.46936
rtibia 69.8793 0 0
rfoot -3.23126 13.4671 0
rtoes 2.99223 0 0
lowerback 10.6058 2.00887 -13.0457
upperback -2.3329 0.608074 -1.57727
thorax -8.70873 0.849788 5.53623
lowerneck 0.927418 -11.6029 -12.3936
upperneck 5.41741 -16.2061 10.0288
head 3.30734 -8.16472 4.31696
lclavicle 3.21721e-14 9.17978e-15 0
lhumerus -65.0898 -19.1671 103.151
lradius 100.462 0 0
lwrist 57.483 0 0
lhand -10.6646 423.199 0
lfingers 7.12502 0 0
lthumb 15.3413 -370.104 0
rclavicle 3.21721e-14 9.17978e-15 0
rhumerus 46.4798 -8.91961 -61.1217
rradius 21.5754 0 0
rwrist 31.4709 0 0
rhand -15.8088 -402.188 0
rfingers 7.12502 0 0
rthumb 9.91776 291.101 0
2248
root -0.759699 13.7944 -16.5538 908.35 -25.5601 170.081
lfemur 9.45532 0.700026 -14.8583
ltibia 37.2317 0 0
lfoot -24.6224 35.4927 0
ltoes -41.3575 0 0
rfemur -68.3517 -20.8871 8.54535
rtibia 70.2993 0 0
rfoot -3.52408 13.529 0
rtoes 3.13204 0 0
lowerback 10.4261 2.0114 -13.1145
upperback -2.38598 0.619526 -1.62016
thorax -8.66764 0.855711 5.52688
lowerneck 0.895359 -11.6317 -12.36
upperneck 5.37438 -16.238 10.0482
head 3.30213 -8.17819 4.31448
lclavicle 3.17317e-14 1.03587e-14 0
lhumerus -65.1132 -19.1961 103.161
lradius 100.433 0 0
lwrist 57.6199 0 0
lhand -10.8232 422.77 0
lfingers 7.12502 0 0
lthumb 15.1886 -361.521 0
rclavicle 3.17317e-14 1.03587e-14 0
rhumerus 46.5124 -8.95384 -60.996
rradius 21.591 0 0
rwrist 31.3448 0 0
rhand -15.8617 -402.173 0
rfingers 7.12502 0 0
rthumb 9.86839 291.103 0
2249
root -0.763299 13.7877 -16.5787 908.696 -25.5112 169.949
lfemur 9.6774 0.605758 -14.9643
ltibia 36.6413 0 0
lfoot -24.4851 35.5948 0
ltoes -41.7554 0 0
rfemur -68.8331 -21.0691 8.6259
rtibia 70.7669 0 0
rfoot -3.8588 13.6061 0
rtoes 3.2819 0 0
lowerback 10.2285 2.01668 -13.1916
upperback -2.44586 0.634799 -1.67026
thorax -8.62469 0.863708 5.51363
lowerneck 0.868145 -11.6693 -12.3295
upperneck 5.31668 -16.2811 10.0747
head 3.29333 -8.19692 4.31418
lclavicle 3.12977e-14 1.16353e-14 0
lhumerus -65.2365 -19.2005 103.191
lradius 100.442 0 0
lwrist 57.8294 0 0
lhand -10.9736 422.336 0
lfingers 7.12502 0 0
lthumb 15.0438 -352.381 0
rclavicle 3.12977e-14 1.16353e-14 0
rhumerus 46.6079 -9.00921 -60.8478
rradius 21.496 0 0
rwrist 31.3074 0 0
rhand -16.0053 -402.172 0
rfingers 7.12502 0 0
rthumb 9.74205 291.019 0
2250
root -0.766899 13.7809 -16.6036 909.085 -25.4662 169.797
lfemur 9.94007 0.499658 -15.0704
ltibia 35.9835 0 0
lfoot -24.3369 35.7171 0
ltoes -42.1916 0 0
rfemur -69.3696 -21.2819 8.71112
rtibia 71.2847 0 0
rfoot -4.23786 13.6992 0
rtoes 3.44218 0 0
lowerback 10.0121 2.02494 -13.2775
upperback -2.51292 0.654163 -1.72801
thorax -8.57987 0.873925 5.49619
lowerneck 0.846268 -11.7161 -12.3022
upperneck 5.24327 -16.3362 10.1086
head 3.28066 -8.22129 4.31626
lclavicle 3.08719e-14 1.30138e-14 0
lhumerus -65.4677 -19.1782 103.241
lradius 100.493 0 0
lwrist 58.1169 0 0
lhand -11.1147 421.899 0
lfingers 7.12502 0 0
lthumb 14.9081 -342.664 0
rclavicle 3.08719e-14 1.30138e-14 0
rhumerus 46.7712 -9.08731 -60.6757
rradius 21.2818 0 0
rwrist 31.3661 0 0
rhand -16.2468 -402.186 0
rfingers 7.12502 0 0
rthumb 9.53269 290.843 0
2251
root -0.770499 13.7741 -16.6286 909.52 -25.4254 169.625
lfemur 10.2458 0.381084 -15.1764
ltibia 35.255 0 0
lfoot -24.1774 35.8611 0
ltoes -42.6681 0 0
rfemur -69.9643 -21.5272 8.80115
rtibia 71.8551 0 0
rfoot -4.66373 13.8094 0
rtoes 3.61326 0 0
lowerback 9.77598 2.03638 -13.3726
upperback -2.58753 0.677891 -1.79384
thorax -8.53316 0.886512 5.47429
lowerneck 0.830217 -11.773 -12.2787
upperneck 5.15311 -16.404 10.1506
head 3.26385 -8.25167 4.32089
lclavicle 3.04563e-14 1.44981e-14 0
lhumerus -65.8146 -19.1273 103.314
lradius 100.589 0 0
lwrist 58.4877 0 0
lhand -11.2452 421.458 0
lfingers 7.12502 0 0
lthumb 14.7825 -332.354 0
rclavicle 3.04563e-14 1.44981e-14 0
rhumerus 47.0073 -9.18975 -60.4783
rradius 20.9391 0 0
rwrist 31.5285 0 0
rhand -16.5933 -402.216 0
rfingers 7.12502 0 0
rthumb 9.23426 290.568 0
2252
root -0.774099 13.7674 -16.6535 910.004 -25.3894 169.432
lfemur 10.5972 0.249397 -15.282
ltibia 34.4521 0 0
lfoot -24.0061 36.0279 0
ltoes -43.1866 0 0
rfemur -70.6198 -21.8069 8.89611
rtibia 72.4808 0 0
rfoot -5.13884 13.9377 0
rtoes 3.79549 0 0
lowerback 9.51929 2.05123 -13.4774
upperback -2.67008 0.706254 -1.86822
thorax -8.48453 0.901617 5.44764
lowerneck 0.820484 -11.8404 -12.2591
upperneck 5.04515 -16.4853 10.2011
head 3.24264 -8.28847 4.32827
lclavicle 3.00528e-14 1.60927e-14 0
lhumerus -66.2854 -19.0457 103.409
lradius 100.733 0 0
lwrist 58.9473 0 0
lhand -11.3641 421.015 0
lfingers 7.12502 0 0
lthumb 14.6682 -321.433 0
rclavicle 3.00528e-14 1.60927e-14 0
rhumerus 47.3211 -9.31811 -60.254
rradius 20.4592 0 0
rwrist 31.802 0 0
rhand -17.0519 -402.263 0
rfingers 7.12502 0 0
rthumb 8.84072 290.187 0
